<?xml version="1.0" encoding="UTF-8"?>
<!DOCTYPE svg PUBLIC "-//W3C//DTD SVG 1.1//EN" "http://www.w3.org/Graphics/SVG/1.1/DTD/svg11.dtd">
<!-- Creator: CorelDRAW -->
<svg xmlns="http://www.w3.org/2000/svg" xml:space="preserve" width="24.0477mm" height="19.1836mm" version="1.1" style="shape-rendering:geometricPrecision; text-rendering:geometricPrecision; image-rendering:optimizeQuality; fill-rule:evenodd; clip-rule:evenodd"
viewBox="0 0 1300.37 1037.35"
 xmlns:xlink="http://www.w3.org/1999/xlink"
 xmlns:xodm="http://www.corel.com/coreldraw/odm/2003">
 <defs>
  <style type="text/css">
   <![CDATA[
    .fil2 {fill:#F58634}
    .fil3 {fill:#F58634;fill-rule:nonzero}
    .fil0 {fill:#F58634;fill-rule:nonzero}
    .fil1 {fill:#2375F5;fill-rule:nonzero}
   ]]>
  </style>
 </defs>
 <g id="Layer_x0020_1">
  <metadata id="CorelCorpID_0Corel-Layer"/>
  <path class="fil0" d="M95.27 118.77l141.85 -0.42 0 52.46 -141.43 0.42 -0.42 -52.46zm4.62 120.45l160.74 0 -0.42 54.56 -227.04 0 0.42 -293.78 221.59 0 -0.84 54.56 -153.6 0 -0.84 184.66z"/>
  <path id="_1" class="fil0" d="M447.38 64.63c17.9,0 33.92,3.57 48.05,10.7 14.13,7.14 25.25,18.05 33.36,32.74 8.12,14.69 12.17,33.5 12.17,56.45l0 129.26 -65.47 0 0 -119.19c0,-18.19 -3.99,-31.61 -11.96,-40.29 -7.98,-8.67 -19.23,-13.01 -33.79,-13.01 -10.35,0 -19.66,2.17 -27.91,6.51 -8.25,4.34 -14.69,10.98 -19.3,19.93 -4.62,8.95 -6.93,20.42 -6.93,34.41l0 111.64 -65.47 0 0 -225.79 62.53 0 0 62.53 -11.75 -18.88c8.11,-15.11 19.73,-26.72 34.83,-34.83 15.11,-8.11 32.32,-12.17 51.62,-12.17z"/>
  <path id="_2" class="fil0" d="M710.94 297.14c-24.34,0 -46.02,-4.97 -65.05,-14.9 -19.02,-9.93 -33.92,-23.71 -44.69,-41.34 -10.77,-17.63 -16.16,-37.63 -16.16,-60.01 0,-22.66 5.39,-42.74 16.16,-60.23 10.77,-17.48 25.67,-31.2 44.69,-41.12 19.03,-9.93 40.71,-14.9 65.05,-14.9 23.78,0 44.49,4.97 62.11,14.9 17.63,9.93 30.64,24.13 39.03,42.59l-50.78 27.28c-5.87,-10.63 -13.22,-18.47 -22.03,-23.5 -8.81,-5.04 -18.4,-7.55 -28.75,-7.55 -11.19,0 -21.26,2.51 -30.22,7.55 -8.95,5.03 -16.02,12.17 -21.19,21.4 -5.17,9.23 -7.77,20.42 -7.77,33.58 0,13.15 2.59,24.34 7.77,33.58 5.17,9.23 12.24,16.36 21.19,21.4 8.95,5.03 19.03,7.55 30.22,7.55 10.36,0 19.94,-2.45 28.75,-7.35 8.81,-4.89 16.16,-12.8 22.03,-23.71l50.78 27.7c-8.39,18.19 -21.4,32.24 -39.03,42.18 -17.62,9.93 -38.33,14.9 -62.11,14.9z"/>
  <path id="_3" class="fil0" d="M988.35 293.78l0 -44.07 -4.2 -9.65 0 -78.9c0,-13.99 -4.27,-24.9 -12.8,-32.74 -8.53,-7.83 -21.61,-11.75 -39.24,-11.75 -12.03,0 -23.85,1.89 -35.46,5.67 -11.62,3.77 -21.47,8.88 -29.59,15.32l-23.5 -45.75c12.31,-8.67 27.14,-15.39 44.49,-20.14 17.35,-4.76 34.97,-7.14 52.88,-7.14 34.41,0 61.13,8.12 80.16,24.34 19.03,16.23 28.54,41.55 28.54,75.96l0 128.84 -61.27 0zm-68.83 3.36c-17.62,0 -32.73,-3.01 -45.33,-9.03 -12.59,-6.01 -22.24,-14.2 -28.96,-24.55 -6.72,-10.35 -10.07,-21.97 -10.07,-34.83 0,-13.43 3.29,-25.18 9.86,-35.25 6.58,-10.07 17,-17.97 31.27,-23.71 14.27,-5.74 32.88,-8.6 55.82,-8.6l60.01 0 0 38.19 -52.88 0c-15.39,0 -25.95,2.51 -31.68,7.55 -5.74,5.03 -8.61,11.33 -8.61,18.88 0,8.39 3.29,15.04 9.86,19.94 6.58,4.89 15.6,7.34 27.07,7.34 10.91,0 20.71,-2.59 29.38,-7.77 8.67,-5.17 14.97,-12.8 18.89,-22.87l10.07 30.22c-4.75,14.55 -13.43,25.6 -26.02,33.15 -12.59,7.55 -28.82,11.33 -48.68,11.33z"/>
  <path id="_4" class="fil0" d="M1108.8 293.78l0 -225.79 62.53 0 0 63.79 -8.81 -18.47c6.72,-15.95 17.49,-28.05 32.32,-36.3 14.83,-8.25 32.88,-12.38 54.14,-12.38l0 60.43c-2.8,-0.28 -5.32,-0.49 -7.55,-0.63 -2.24,-0.14 -4.62,-0.21 -7.13,-0.21 -17.91,0 -32.39,5.1 -43.44,15.32 -11.05,10.21 -16.58,26.09 -16.58,47.63l0 106.6 -65.47 0z"/>
  <polygon class="fil1" points="94.43,635.23 94.01,396.85 -0,396.85 -0,341.46 255.59,341.46 256.01,396.85 161.58,396.85 162,635.23 "/>
  <path id="_1_0" class="fil1" d="M372.26 638.59c-24.34,-0.28 -45.74,-5.39 -64.21,-15.32 -18.47,-9.93 -33.01,-23.57 -43.65,-40.92 -10.63,-17.35 -15.95,-37.35 -15.95,-60.01 -0.28,-22.66 5.03,-42.74 15.95,-60.23 10.91,-17.48 25.6,-31.2 44.07,-41.12 18.46,-9.93 39.59,-14.76 63.37,-14.48 24.06,-0.28 45.47,4.55 64.21,14.48 18.75,9.93 33.36,23.64 43.86,41.12 10.49,17.49 15.74,37.57 15.74,60.23 0.28,22.38 -4.89,42.31 -15.53,59.8 -10.63,17.49 -25.32,31.2 -44.07,41.13 -18.74,9.93 -40.01,15.04 -63.79,15.32zm0 -53.72c10.91,0 20.71,-2.52 29.38,-7.55 8.67,-5.04 15.53,-12.24 20.56,-21.61 5.03,-9.38 7.55,-20.49 7.55,-33.36 0,-13.15 -2.52,-24.34 -7.55,-33.58 -5.03,-9.24 -11.89,-16.37 -20.56,-21.4 -8.67,-5.04 -18.61,-7.55 -29.8,-7.55 -10.63,0 -20.28,2.51 -28.96,7.55 -8.67,5.03 -15.6,12.17 -20.78,21.4 -5.17,9.23 -7.77,20.42 -7.77,33.58 0,12.87 2.59,23.99 7.77,33.36 5.17,9.37 12.03,16.64 20.56,21.82 8.53,5.18 18.4,7.62 29.58,7.35z"/>
  <path id="_2_1" class="fil1" d="M634.98 638.59c-18.75,0 -35.46,-3.64 -50.15,-10.91 -14.69,-7.27 -26.09,-18.4 -34.2,-33.36 -8.12,-14.97 -12.17,-34.06 -12.17,-57.29l0 -127.58 65.47 0 0 117.93c0,18.75 3.99,32.53 11.96,41.34 7.98,8.81 19.24,13.22 33.79,13.22 10.07,0 19.02,-2.17 26.86,-6.51 7.84,-4.34 13.99,-11.05 18.47,-20.14 4.48,-9.09 6.72,-20.49 6.72,-34.2l0 -111.64 65.47 0 0 225.79 -62.11 0 0 -62.11 11.33 18.04c-7.55,15.67 -18.67,27.49 -33.36,35.46 -14.69,7.98 -30.7,11.96 -48.05,11.96z"/>
  <path id="_3_2" class="fil1" d="M828.03 635.23l0 -225.79 62.53 0 0 63.79 -8.81 -18.47c6.72,-15.95 17.49,-28.05 32.32,-36.3 14.83,-8.25 32.88,-12.38 54.14,-12.38l0 60.43c-2.8,-0.28 -5.32,-0.49 -7.55,-0.63 -2.24,-0.14 -4.62,-0.21 -7.13,-0.21 -17.91,0 -32.39,5.1 -43.44,15.32 -11.05,10.21 -16.58,26.09 -16.58,47.63l0 106.6 -65.47 0z"/>
  <path class="fil2" d="M1132.8 408.46c26.95,-5.6 48.95,13.59 53.46,35 5.79,27.42 -13.37,49.37 -35.01,53.83 -27.13,5.58 -49.52,-13.58 -53.75,-35.08 -5.41,-27.41 13.17,-49.15 35.29,-53.75zm-5.46 -45.21c-30.58,4.96 -53.2,24.87 -64,45.27 -16.32,30.81 -15.57,55.39 -1.68,87.29 11.64,26.73 24.47,47.4 38.36,70.11 6.82,11.16 14.38,22.25 21.92,32.85 22.67,31.85 24.67,23.43 52.46,-18.38 19.02,-28.61 47.72,-74.47 55.98,-108.28 10.98,-44.89 -17.48,-88.66 -55.55,-103.93 -14.96,-6 -30.13,-7.75 -47.48,-4.94z"/>
  <path class="fil3" d="M93.67 841.81c-1.78,0 -2.67,-3.18 -2.67,-9.54 -0.76,-19.59 -1.27,-38.28 -1.52,-56.08 -0.12,-3.95 -0.12,-6.49 0,-7.64 0.13,-1.14 0.32,-1.84 0.57,-2.1 1.4,-1.52 2.93,-1.9 4.58,-1.14 1.02,0.51 1.68,1.4 2,2.67 0.32,1.27 0.54,4.13 0.67,8.58 0.38,12.08 0.89,27.79 1.52,47.12 0.25,7.38 0.29,12.15 0.09,14.31 -0.19,2.16 -0.67,3.37 -1.43,3.62 -1.27,0.89 -2.55,0.95 -3.82,0.19zm-2.86 -87.94c-1.4,-1.27 -1.84,-2.8 -1.34,-4.58 0.64,-1.52 1.78,-2.35 3.43,-2.48 1.02,-0.38 1.91,-0.06 2.67,0.95 0.76,0.76 1.15,1.52 1.15,2.29 0,1.53 -0.64,2.87 -1.91,4.01 -1.4,0.51 -2.74,0.45 -4.01,-0.19l0 0z"/>
  <path id="_1_3" class="fil3" d="M542.91 795.07l0 0c0.38,6.36 -0.7,12.53 -3.24,18.5 -4.07,7.25 -9.66,10.49 -16.78,9.73 -3.3,-0.76 -6.42,-2.61 -9.35,-5.53 -3.43,-3.56 -5.66,-7.79 -6.67,-12.69 -1.02,-4.89 -1.02,-9.76 0,-14.59 1.02,-6.36 3.81,-11.76 8.39,-16.21 3.05,-2.16 6.33,-2.8 9.83,-1.91 3.49,0.89 6.52,2.48 9.06,4.77 5.09,4.83 8.01,10.81 8.78,17.93zm-9.34 7.82l0 0c0.38,-3.3 0.31,-6.23 -0.19,-8.77 -0.51,-2.55 -1.65,-5.22 -3.43,-8.01 -1.78,-2.8 -4.13,-4.01 -7.06,-3.62 -1.91,0.63 -3.37,2.03 -4.39,4.2 -1.02,2.16 -1.78,4.2 -2.29,6.11 -0.89,3.43 -0.98,6.93 -0.29,10.49 0.7,3.56 2.45,6.55 5.25,8.97 2.03,1.65 4.2,2.03 6.48,1.15 3.43,-2.29 5.41,-5.79 5.92,-10.5zm-15.45 -34.34c-1.91,-1.14 -2.48,-2.73 -1.71,-4.77 0.38,-0.51 1.4,-1.33 3.05,-2.48 2.54,-1.52 4.39,-3.62 5.53,-6.29 1.02,-2.29 2.35,-3.43 4.01,-3.43 1.15,0 2.03,0.44 2.67,1.34 0.89,0.76 1.14,1.84 0.76,3.24 -0.38,2.93 -1.97,5.79 -4.77,8.59 -3.94,3.69 -7.12,4.96 -9.54,3.81l0 0z"/>
  <path id="_2_4" class="fil3" d="M591.94 825.98c-1.65,-0.89 -1.91,-4.01 -0.77,-9.35 2.55,-13.1 3.24,-23.14 2.1,-30.14 -1.78,-10.18 -6.17,-11.77 -13.17,-4.77 -6.48,6.36 -11.57,16.85 -15.26,31.47 -0.76,3.18 -1.34,5.31 -1.71,6.39 -0.38,1.08 -0.83,1.81 -1.34,2.2 -2.67,2.16 -4.96,1.52 -6.87,-1.91 -0.38,-0.76 -0.74,-2.57 -1.05,-5.43 -0.32,-2.86 -0.67,-7.54 -1.05,-14.02 -0.51,-6.87 -0.77,-12.08 -0.77,-15.64 0,-3.56 0.13,-5.92 0.38,-7.06 0.64,-2.04 1.78,-3.21 3.43,-3.53 1.65,-0.32 3.05,0.42 4.2,2.2 0.38,0.76 0.64,3.18 0.76,7.25 0.25,3.82 0.51,6.17 0.76,7.06 0.38,0.76 0.83,0.83 1.34,0.19 0.51,-0.51 1.15,-1.47 1.91,-2.86 5.34,-8.91 10.74,-14.95 16.22,-18.13 6.36,-2.93 11.76,-2.1 16.21,2.48 5.85,6.61 7.51,18.57 4.96,35.86 -1.02,7.12 -2.1,12.21 -3.24,15.26 -1.91,3.69 -4.26,4.52 -7.06,2.48l0 0z"/>
  <path id="_3_5" class="fil3" d="M709.64 818.16l0 0c1.52,-0.13 2.98,0 4.39,0.38 1.4,0.38 2.16,1.47 2.29,3.24 -0.38,3.18 -3.5,5.02 -9.35,5.53 -4.58,0.13 -8.42,-1.4 -11.54,-4.58 -3.12,-3.18 -5.25,-6.93 -6.39,-11.25 -1.27,-5.47 -1.27,-11 0,-16.6 2.42,-9.03 6.61,-15.07 12.59,-18.13 4.07,-1.4 7.69,-0.83 10.87,1.72 2.29,2.29 3.18,5.5 2.67,9.63 -0.51,4.14 -2.29,7.92 -5.34,11.35 -2.42,2.67 -5.15,4.58 -8.2,5.73 -1.52,0.51 -2.54,0.95 -3.05,1.34 -1.28,2.29 -0.32,5.4 2.86,9.34 2.16,1.91 4.7,2.67 7.63,2.29 0.12,0 0.32,0 0.57,0zm-7.25 -30.71l0 0c-2.93,3.81 -4.07,6.74 -3.43,8.78 0.38,0.51 1.21,0.44 2.48,-0.19 1.65,-1.14 3.02,-2.89 4.1,-5.25 1.08,-2.35 1.18,-4.03 0.29,-5.06 -0.76,-0.76 -1.91,-0.19 -3.43,1.72z"/>
  <path id="_4_6" class="fil3" d="M763.82 825.98c-1.65,-0.89 -1.91,-4.01 -0.77,-9.35 2.55,-13.1 3.24,-23.14 2.1,-30.14 -1.78,-10.18 -6.17,-11.77 -13.17,-4.77 -6.48,6.36 -11.57,16.85 -15.26,31.47 -0.76,3.18 -1.34,5.31 -1.71,6.39 -0.38,1.08 -0.83,1.81 -1.34,2.2 -2.67,2.16 -4.96,1.52 -6.87,-1.91 -0.38,-0.76 -0.74,-2.57 -1.05,-5.43 -0.32,-2.86 -0.67,-7.54 -1.05,-14.02 -0.51,-6.87 -0.77,-12.08 -0.77,-15.64 0,-3.56 0.13,-5.92 0.38,-7.06 0.64,-2.04 1.78,-3.21 3.43,-3.53 1.65,-0.32 3.05,0.42 4.2,2.2 0.38,0.76 0.64,3.18 0.76,7.25 0.25,3.82 0.51,6.17 0.76,7.06 0.38,0.76 0.83,0.83 1.34,0.19 0.51,-0.51 1.15,-1.47 1.91,-2.86 5.34,-8.91 10.74,-14.95 16.22,-18.13 6.36,-2.93 11.76,-2.1 16.21,2.48 5.85,6.61 7.51,18.57 4.96,35.86 -1.02,7.12 -2.1,12.21 -3.24,15.26 -1.91,3.69 -4.26,4.52 -7.06,2.48l0 0z"/>
  <path id="_5" class="fil3" d="M875.41 833.42c-2.8,-1.4 -4.99,-3.47 -6.58,-6.2 -1.59,-2.73 -2.77,-5.56 -3.53,-8.48 -1.65,-6.87 -2.54,-13.8 -2.67,-20.8 0,0 0,0 0,0 -0.12,-5.72 0,-12.81 0.38,-21.27 0.38,-8.46 0.89,-16.22 1.52,-23.27 0.64,-7.06 1.27,-11.35 1.91,-12.88 1.78,-2.8 3.81,-3.37 6.11,-1.72 0.76,0.64 1.21,1.81 1.34,3.53 0.12,1.71 0.06,4.8 -0.19,9.25 -0.76,9.66 -1.21,19.07 -1.34,28.23 -0.25,5.72 -0.38,11.6 -0.38,17.64 0,6.04 0.7,11.86 2.1,17.46 0.89,3.43 2.48,6.42 4.77,8.97 1.15,1.15 2.38,2.48 3.72,4.01 1.34,1.52 1.56,3.11 0.67,4.77 -0.89,1.27 -2.1,1.88 -3.62,1.81 -1.52,-0.06 -2.93,-0.41 -4.2,-1.05z"/>
  <path id="_6" class="fil3" d="M928.25 821.97l0 0c1.65,5.22 1.78,8.08 0.38,8.59 -1.4,1.4 -2.93,1.71 -4.58,0.95l0 0c-2.16,-0.51 -4.01,-4.26 -5.53,-11.25 -0.64,-3.18 -1.27,-4.8 -1.91,-4.87 -0.63,-0.06 -1.71,1.37 -3.24,4.29 -2.55,4.7 -5.34,7.82 -8.4,9.35 -3.3,1.4 -6.55,1.33 -9.73,-0.19 -3.94,-2.29 -6.74,-5.91 -8.39,-10.87 -2.8,-13.35 -0.06,-26.19 8.2,-38.53 5.09,-6.36 10.81,-8.39 17.17,-6.11 2.03,1.02 3.69,1.02 4.96,0 3.43,-1.4 5.79,-0.51 7.06,2.67 0.13,1.4 0.32,4.9 0.57,10.5 0.25,16.66 1.4,28.49 3.43,35.48zm-18.31 -16.78l0 0c2.29,-7.38 3.56,-13.23 3.81,-17.55 -0.12,-2.54 -1.15,-4.35 -3.05,-5.43 -1.91,-1.08 -3.94,-0.98 -6.11,0.29 -5.22,4.83 -8.33,12.78 -9.35,23.84 -0.25,7.64 1.08,12.27 4.01,13.93 1.27,0.76 2.61,0.44 4.01,-0.96 2.16,-2.54 4.39,-7.25 6.68,-14.11z"/>
  <path id="_7" class="fil3" d="M1052.44 794.69l0 0c0.89,10.94 -2.74,19.84 -10.87,26.71 -3.56,3.06 -7.76,4.58 -12.59,4.58 -2.42,0 -3.63,0.25 -3.63,0.76 -0.76,0.25 -0.95,1.52 -0.57,3.82 0.12,2.42 0.25,6.99 0.38,13.73 0.13,5.72 0.1,9.54 -0.1,11.44 -0.19,1.91 -0.73,3.24 -1.62,4.01 -1.65,1.27 -3.31,1.4 -4.96,0.38 -0.89,-0.51 -1.49,-1.5 -1.81,-2.96 -0.32,-1.46 -0.54,-4.67 -0.67,-9.64 -0.25,-6.23 -0.57,-12.59 -0.96,-19.07 -0.38,-5.98 -0.57,-9.92 -0.57,-11.83 0,-1.78 -0.19,-5.72 -0.57,-11.83 -0.38,-5.6 -0.67,-10.84 -0.86,-15.74 -0.19,-4.9 -0.29,-8.97 -0.29,-12.21 0,-3.24 0.06,-5.18 0.19,-5.82 0.64,-1.91 1.78,-3.02 3.43,-3.34 1.65,-0.32 2.99,0.48 4.01,2.38 0.51,0.89 0.89,2.35 1.15,4.39 0.25,2.42 0.63,3.79 1.14,4.1 0.51,0.32 1.47,-0.09 2.87,-1.24 4.32,-3.56 8.74,-4.8 13.25,-3.72 4.52,1.08 8.05,4.1 10.59,9.06 1.65,3.82 2.67,7.82 3.06,12.02zm-9.16 4.96l0 0c0.38,-4.45 -0.19,-8.59 -1.71,-12.4 -1.27,-3.94 -3.88,-5.66 -7.82,-5.15 -1.91,0.76 -3.47,2.16 -4.68,4.2 -1.21,2.04 -2.13,3.94 -2.76,5.73 -1.52,4.2 -2.42,8.52 -2.67,12.97 -0.13,1.4 -0.19,3.15 -0.19,5.25 0,2.1 0.44,3.72 1.34,4.86 2.16,1.78 5.08,1.91 8.77,0.38 5.98,-3.43 9.22,-8.71 9.73,-15.83z"/>
  <path id="_8" class="fil3" d="M1103.18 821.97l0 0c1.65,5.22 1.78,8.08 0.38,8.59 -1.4,1.4 -2.93,1.71 -4.58,0.95l0 0c-2.16,-0.51 -4.01,-4.26 -5.53,-11.25 -0.64,-3.18 -1.27,-4.8 -1.91,-4.87 -0.63,-0.06 -1.71,1.37 -3.24,4.29 -2.55,4.7 -5.34,7.82 -8.4,9.35 -3.3,1.4 -6.55,1.33 -9.73,-0.19 -3.94,-2.29 -6.74,-5.91 -8.39,-10.87 -2.8,-13.35 -0.06,-26.19 8.2,-38.53 5.09,-6.36 10.81,-8.39 17.17,-6.11 2.03,1.02 3.69,1.02 4.96,0 3.43,-1.4 5.79,-0.51 7.06,2.67 0.13,1.4 0.32,4.9 0.57,10.5 0.25,16.66 1.4,28.49 3.43,35.48zm-18.31 -16.78l0 0c2.29,-7.38 3.56,-13.23 3.81,-17.55 -0.12,-2.54 -1.15,-4.35 -3.05,-5.43 -1.91,-1.08 -3.94,-0.98 -6.11,0.29 -5.22,4.83 -8.33,12.78 -9.35,23.84 -0.25,7.64 1.08,12.27 4.01,13.93 1.27,0.76 2.61,0.44 4.01,-0.96 2.16,-2.54 4.39,-7.25 6.68,-14.11z"/>
  <path id="_9" class="fil3" d="M1124.36 833.42c-2.8,-1.4 -4.99,-3.47 -6.58,-6.2 -1.59,-2.73 -2.77,-5.56 -3.53,-8.48 -1.65,-6.87 -2.54,-13.8 -2.67,-20.8 0,0 0,0 0,0 -0.12,-5.72 0,-12.81 0.38,-21.27 0.38,-8.46 0.89,-16.22 1.52,-23.27 0.64,-7.06 1.27,-11.35 1.91,-12.88 1.78,-2.8 3.81,-3.37 6.11,-1.72 0.76,0.64 1.21,1.81 1.34,3.53 0.12,1.71 0.06,4.8 -0.19,9.25 -0.76,9.66 -1.21,19.07 -1.34,28.23 -0.25,5.72 -0.38,11.6 -0.38,17.64 0,6.04 0.7,11.86 2.1,17.46 0.89,3.43 2.48,6.42 4.77,8.97 1.15,1.15 2.38,2.48 3.72,4.01 1.34,1.52 1.56,3.11 0.67,4.77 -0.89,1.27 -2.1,1.88 -3.62,1.81 -1.52,-0.06 -2.93,-0.41 -4.2,-1.05z"/>
  <path id="_10" class="fil3" d="M1196.09 825.02c-1.52,-0.76 -1.91,-4.26 -1.15,-10.5 1.02,-8.39 0.95,-16.78 -0.19,-25.18 -0.38,-4.2 -1.78,-7.88 -4.2,-11.06 -1.4,-1.28 -2.86,-1.65 -4.39,-1.15 -1.52,0.51 -2.8,1.34 -3.81,2.48 -3.94,4.32 -7.06,9.41 -9.35,15.26 -0.51,1.4 -1.27,3.94 -2.29,7.63 -0.25,2.42 -1.02,4.7 -2.29,6.87 -2.41,2.67 -4.64,2.67 -6.67,0 -1.02,-2.42 -1.53,-5.02 -1.53,-7.82 -0.38,-6.99 -1.02,-11.95 -1.9,-14.88 -0.51,-1.78 -1.3,-2.13 -2.38,-1.05 -1.08,1.08 -2.2,3.4 -3.34,6.96 -1.4,3.56 -2.8,9.41 -4.2,17.55 -0.89,5.21 -1.52,8.33 -1.91,9.35 -0.89,1.4 -2.16,2.1 -3.81,2.1 -2.67,0 -4.26,-2.1 -4.77,-6.29 -0.89,-6.74 -1.47,-15.58 -1.72,-26.52 -0.12,-3.94 -0.16,-6.61 -0.09,-8.01 0.06,-1.4 0.22,-2.42 0.48,-3.05 2.16,-3.56 4.52,-3.75 7.06,-0.57 0.38,0.76 0.64,2.03 0.76,3.81 0.13,1.53 0.35,2.61 0.67,3.24 0.32,0.64 0.67,0.76 1.05,0.38 0.51,-0.38 1.34,-1.59 2.48,-3.63 3.81,-6.23 7.75,-8.46 11.83,-6.67 2.16,1.14 3.94,3.24 5.34,6.29 0.76,2.16 1.46,3.18 2.1,3.05 0.63,-0.12 1.78,-1.4 3.43,-3.81 3.43,-5.09 7.06,-8.65 10.87,-10.69 2.16,-1.14 4.14,-1.59 5.92,-1.34 3.43,-0.12 6.49,1.34 9.15,4.39 4.46,4.32 7,12.15 7.64,23.46 0.25,11.57 -0.45,20.73 -2.1,27.47 -1.9,2.93 -4.13,3.56 -6.67,1.91z"/>
  <path id="_11" class="fil3" d="M1257.7 821.97l0 0c1.65,5.22 1.78,8.08 0.38,8.59 -1.4,1.4 -2.93,1.71 -4.58,0.95l0 0c-2.16,-0.51 -4.01,-4.26 -5.53,-11.25 -0.64,-3.18 -1.27,-4.8 -1.91,-4.87 -0.63,-0.06 -1.71,1.37 -3.24,4.29 -2.55,4.7 -5.34,7.82 -8.4,9.35 -3.3,1.4 -6.55,1.33 -9.73,-0.19 -3.94,-2.29 -6.74,-5.91 -8.39,-10.87 -2.8,-13.35 -0.06,-26.19 8.2,-38.53 5.09,-6.36 10.81,-8.39 17.17,-6.11 2.03,1.02 3.69,1.02 4.96,0 3.43,-1.4 5.79,-0.51 7.06,2.67 0.13,1.4 0.32,4.9 0.57,10.5 0.25,16.66 1.4,28.49 3.43,35.48zm-18.31 -16.78l0 0c2.29,-7.38 3.56,-13.23 3.81,-17.55 -0.12,-2.54 -1.15,-4.35 -3.05,-5.43 -1.91,-1.08 -3.94,-0.98 -6.11,0.29 -5.22,4.83 -8.33,12.78 -9.35,23.84 -0.25,7.64 1.08,12.27 4.01,13.93 1.27,0.76 2.61,0.44 4.01,-0.96 2.16,-2.54 4.39,-7.25 6.68,-14.11z"/>
  <path id="_12" class="fil3" d="M129.15 855.54c-6.11,-2.29 -10.75,-7.19 -13.93,-14.69 -4.83,-12.97 -6.67,-41.78 -5.53,-86.42 0.25,-10.81 0.38,-18.03 0.38,-21.65 0,-3.63 -0.13,-6.07 -0.38,-7.34 -0.25,-1.53 0,-2.61 0.77,-3.24 0.76,-0.76 1.52,-1.34 2.29,-1.72 7.63,-0.89 17.61,-1.52 29.95,-1.9 5.6,0 8.59,0.57 8.97,1.71 1.27,1.65 1.14,3.31 -0.38,4.96 -0.51,0.64 -1.4,1.05 -2.67,1.24 -1.27,0.19 -4.2,0.35 -8.78,0.48 -9.28,0.51 -15.07,0.95 -17.36,1.34 -2.29,0.38 -3.37,1.27 -3.24,2.67 -0.51,3.43 -0.7,6.93 -0.57,10.49 0,5.98 -0.12,11.96 -0.38,17.93 -0.38,2.29 0.25,4.13 1.91,5.53 1.9,0.51 3.81,0.44 5.72,-0.19 3.82,-0.76 7.63,-1.02 11.45,-0.76 1.9,0.51 2.96,1.52 3.15,3.05 0.19,1.52 -0.54,2.8 -2.2,3.82 -0.63,0.38 -1.91,0.73 -3.81,1.05 -1.91,0.32 -4.77,0.67 -8.59,1.05 -5.47,0.25 -8.01,1.27 -7.63,3.05 -0.13,6.11 0.25,17.04 1.15,32.81 0.76,12.08 1.97,20.89 3.62,26.42 1.65,5.53 4.13,9.19 7.44,10.97 1.02,0.76 2.54,1.08 4.57,0.95 3.06,0.12 7.51,-1.59 13.36,-5.15 3.18,-1.78 5.02,-2.67 5.53,-2.67 2.54,0 3.81,1.59 3.81,4.76 -0.25,1.65 -1.97,3.5 -5.15,5.54 -9.15,5.98 -16.98,7.94 -23.46,5.91z"/>
  <path id="_13" class="fil3" d="M201.64 825.98c-1.65,-0.89 -1.91,-4.01 -0.77,-9.35 2.55,-13.1 3.24,-23.14 2.1,-30.14 -1.78,-10.18 -6.17,-11.77 -13.17,-4.77 -6.48,6.36 -11.57,16.85 -15.26,31.47 -0.76,3.18 -1.34,5.31 -1.71,6.39 -0.38,1.08 -0.83,1.81 -1.34,2.2 -2.67,2.16 -4.96,1.52 -6.87,-1.91 -0.38,-0.76 -0.74,-2.57 -1.05,-5.43 -0.32,-2.86 -0.67,-7.54 -1.05,-14.02 -0.51,-6.87 -0.77,-12.08 -0.77,-15.64 0,-3.56 0.13,-5.92 0.38,-7.06 0.64,-2.04 1.78,-3.21 3.43,-3.53 1.65,-0.32 3.05,0.42 4.2,2.2 0.38,0.76 0.64,3.18 0.76,7.25 0.25,3.82 0.51,6.17 0.76,7.06 0.38,0.76 0.83,0.83 1.34,0.19 0.51,-0.51 1.15,-1.47 1.91,-2.86 5.34,-8.91 10.74,-14.95 16.22,-18.13 6.36,-2.93 11.76,-2.1 16.21,2.48 5.85,6.61 7.51,18.57 4.96,35.86 -1.02,7.12 -2.1,12.21 -3.24,15.26 -1.91,3.69 -4.26,4.52 -7.06,2.48l0 0z"/>
  <path id="_14" class="fil3" d="M234.84 826.93c-6.61,-2.29 -10.94,-6.96 -12.97,-14.02 -2.03,-7.06 -2.29,-13.71 -0.76,-19.94 0.12,-0.51 0.25,-1.08 0.38,-1.72 1.78,-6.74 5.53,-12.08 11.26,-16.02 2.54,-1.4 5.31,-1.84 8.3,-1.34 2.99,0.51 5.19,2.16 6.58,4.96 0.77,2.67 0.06,4.52 -2.1,5.53 -1.27,0.13 -2.51,-0.06 -3.71,-0.57 -1.21,-0.51 -2.45,-0.76 -3.72,-0.76 -2.67,0.63 -4.52,2.35 -5.53,5.15 -2.16,4.07 -3.28,9.44 -3.34,16.12 -0.06,6.68 2.45,11.23 7.54,13.64 1.78,0.51 3.24,0.32 4.39,-0.57 1.15,-0.89 2.35,-1.78 3.62,-2.67 3.31,-1.53 5.34,-0.57 6.11,2.86 -0.25,3.05 -1.65,5.4 -4.2,7.06 -2.54,1.65 -5.28,2.55 -8.2,2.67 -1.27,0 -2.48,-0.12 -3.62,-0.38z"/>
  <path id="_15" class="fil3" d="M298.55 821.97l0 0c1.65,5.22 1.78,8.08 0.38,8.59 -1.4,1.4 -2.93,1.71 -4.58,0.95l0 0c-2.16,-0.51 -4.01,-4.26 -5.53,-11.25 -0.64,-3.18 -1.27,-4.8 -1.91,-4.87 -0.63,-0.06 -1.71,1.37 -3.24,4.29 -2.55,4.7 -5.34,7.82 -8.4,9.35 -3.3,1.4 -6.55,1.33 -9.73,-0.19 -3.94,-2.29 -6.74,-5.91 -8.39,-10.87 -2.8,-13.35 -0.06,-26.19 8.2,-38.53 5.09,-6.36 10.81,-8.39 17.17,-6.11 2.03,1.02 3.69,1.02 4.96,0 3.43,-1.4 5.79,-0.51 7.06,2.67 0.13,1.4 0.32,4.9 0.57,10.5 0.25,16.66 1.4,28.49 3.43,35.48zm-18.31 -16.78l0 0c2.29,-7.38 3.56,-13.23 3.81,-17.55 -0.12,-2.54 -1.15,-4.35 -3.05,-5.43 -1.91,-1.08 -3.94,-0.98 -6.11,0.29 -5.22,4.83 -8.33,12.78 -9.35,23.84 -0.25,7.64 1.08,12.27 4.01,13.93 1.27,0.76 2.61,0.44 4.01,-0.96 2.16,-2.54 4.39,-7.25 6.68,-14.11z"/>
  <path id="_16" class="fil3" d="M313.62 827.88c-0.89,-0.89 -1.52,-1.97 -1.91,-3.24 -2.16,-9.92 -4.2,-22.77 -6.11,-38.53 -0.63,-5.6 -0.12,-8.9 1.53,-9.92 2.41,-2.16 4.16,-1.94 5.25,0.67 1.08,2.61 1.68,4.87 1.81,6.77 0.38,3.56 0.83,5.6 1.34,6.11 0.51,0.51 1.21,-0.25 2.1,-2.29 1.15,-3.56 2.8,-7.15 4.96,-10.78 2.16,-3.63 5.15,-5.82 8.97,-6.58 2.55,-0.13 5.47,0.79 8.78,2.76 3.3,1.97 3.88,4.36 1.71,7.15 -1.27,1.4 -3.3,1.34 -6.1,-0.19 -2.93,-1.91 -5.28,-1.02 -7.06,2.67 -1.52,2.42 -3.11,6.61 -4.77,12.59 -1.52,5.47 -2.48,12.46 -2.86,20.99 -0.25,4.32 -0.54,7.28 -0.86,8.87 -0.31,1.59 -0.85,2.64 -1.62,3.15 -1.65,1.4 -3.37,1.34 -5.15,-0.19z"/>
  <path id="_17" class="fil3" d="M384.59 825.98c-1.65,-0.89 -1.91,-4.01 -0.77,-9.35 2.55,-13.1 3.24,-23.14 2.1,-30.14 -1.78,-10.18 -6.17,-11.77 -13.17,-4.77 -6.48,6.36 -11.57,16.85 -15.26,31.47 -0.76,3.18 -1.34,5.31 -1.71,6.39 -0.38,1.08 -0.83,1.81 -1.34,2.2 -2.67,2.16 -4.96,1.52 -6.87,-1.91 -0.38,-0.76 -0.74,-2.57 -1.05,-5.43 -0.32,-2.86 -0.67,-7.54 -1.05,-14.02 -0.51,-6.87 -0.77,-12.08 -0.77,-15.64 0,-3.56 0.13,-5.92 0.38,-7.06 0.64,-2.04 1.78,-3.21 3.43,-3.53 1.65,-0.32 3.05,0.42 4.2,2.2 0.38,0.76 0.64,3.18 0.76,7.25 0.25,3.82 0.51,6.17 0.76,7.06 0.38,0.76 0.83,0.83 1.34,0.19 0.51,-0.51 1.15,-1.47 1.91,-2.86 5.34,-8.91 10.74,-14.95 16.22,-18.13 6.36,-2.93 11.76,-2.1 16.21,2.48 5.85,6.61 7.51,18.57 4.96,35.86 -1.02,7.12 -2.1,12.21 -3.24,15.26 -1.91,3.69 -4.26,4.52 -7.06,2.48l0 0z"/>
  <path id="_18" class="fil3" d="M447.53 821.97l0 0c1.65,5.22 1.78,8.08 0.38,8.59 -1.4,1.4 -2.93,1.71 -4.58,0.95l0 0c-2.16,-0.51 -4.01,-4.26 -5.53,-11.25 -0.64,-3.18 -1.27,-4.8 -1.91,-4.87 -0.63,-0.06 -1.71,1.37 -3.24,4.29 -2.55,4.7 -5.34,7.82 -8.4,9.35 -3.3,1.4 -6.55,1.33 -9.73,-0.19 -3.94,-2.29 -6.74,-5.91 -8.39,-10.87 -2.8,-13.35 -0.06,-26.19 8.2,-38.53 5.09,-6.36 10.81,-8.39 17.17,-6.11 2.03,1.02 3.69,1.02 4.96,0 3.43,-1.4 5.79,-0.51 7.06,2.67 0.13,1.4 0.32,4.9 0.57,10.5 0.25,16.66 1.4,28.49 3.43,35.48zm-18.31 -16.78l0 0c2.29,-7.38 3.56,-13.23 3.81,-17.55 -0.12,-2.54 -1.15,-4.35 -3.05,-5.43 -1.91,-1.08 -3.94,-0.98 -6.11,0.29 -5.22,4.83 -8.33,12.78 -9.35,23.84 -0.25,7.64 1.08,12.27 4.01,13.93 1.27,0.76 2.61,0.44 4.01,-0.96 2.16,-2.54 4.39,-7.25 6.68,-14.11z"/>
  <path id="_19" class="fil3" d="M466.61 826.93c-6.61,-2.29 -10.94,-6.96 -12.97,-14.02 -2.03,-7.06 -2.29,-13.71 -0.76,-19.94 0.12,-0.51 0.25,-1.08 0.38,-1.72 1.78,-6.74 5.53,-12.08 11.26,-16.02 2.54,-1.4 5.31,-1.84 8.3,-1.34 2.99,0.51 5.19,2.16 6.58,4.96 0.77,2.67 0.06,4.52 -2.1,5.53 -1.27,0.13 -2.51,-0.06 -3.71,-0.57 -1.21,-0.51 -2.45,-0.76 -3.72,-0.76 -2.67,0.63 -4.52,2.35 -5.53,5.15 -2.16,4.07 -3.28,9.44 -3.34,16.12 -0.06,6.68 2.45,11.23 7.54,13.64 1.78,0.51 3.24,0.32 4.39,-0.57 1.15,-0.89 2.35,-1.78 3.62,-2.67 3.31,-1.53 5.34,-0.57 6.11,2.86 -0.25,3.05 -1.65,5.4 -4.2,7.06 -2.54,1.65 -5.28,2.55 -8.2,2.67 -1.27,0 -2.48,-0.12 -3.62,-0.38z"/>
  <path id="_20" class="fil3" d="M491.22 828.07c-1.02,-0.38 -1.65,-1.65 -1.91,-3.81 -0.25,-2.16 -0.38,-7.44 -0.38,-15.83 -0.13,-9.92 -0.1,-17.33 0.1,-22.22 0.19,-4.9 0.6,-7.79 1.24,-8.68 1.27,-1.9 2.67,-2.51 4.2,-1.81 1.52,0.7 2.48,2.01 2.86,3.92 0.38,3.69 0.51,7.4 0.38,11.16 -0.13,3.75 -0.19,7.47 -0.19,11.16 0,10.81 -0.03,17.59 -0.09,20.32 -0.06,2.74 -0.29,4.16 -0.67,4.29 -0.38,0.76 -0.83,1.34 -1.34,1.71 -1.52,0.51 -2.93,0.45 -4.2,-0.19zm-0.38 -59.52c-2.29,-1.78 -3.06,-3.97 -2.29,-6.58 0.76,-2.61 2.55,-3.91 5.34,-3.91 2.03,0 3.69,0.96 4.96,2.86 1.02,1.91 0.99,3.82 -0.09,5.73 -1.08,1.9 -2.7,2.86 -4.87,2.86 -1.27,0 -2.29,-0.32 -3.05,-0.96z"/>
  <path id="_21" class="fil3" d="M725.67 957.98l0 0c0.12,3.31 0.22,6.2 0.29,8.68 0.06,2.48 0.09,3.97 0.09,4.48 -0.76,2.29 -2.1,3.43 -4.01,3.43 -0.89,0 -1.71,-0.25 -2.48,-0.76 -1.02,-0.51 -1.75,-1.94 -2.2,-4.29 -0.44,-2.35 -0.86,-6.39 -1.24,-12.11 -0.13,-2.93 -0.32,-4.93 -0.57,-6.01 -0.25,-1.08 -0.64,-1.56 -1.15,-1.43 -0.38,0.38 -1.34,1.84 -2.86,4.39 -3.18,5.34 -6.61,8.97 -10.3,10.87 -7.63,2.93 -13.42,-0.38 -17.36,-9.92 -1.78,-5.34 -1.81,-11.32 -0.1,-17.93 1.72,-6.61 4.68,-12.21 8.87,-16.78 4.57,-4.71 9.85,-6.68 15.83,-5.92 2.8,0.64 4.32,0.06 4.57,-1.71 0.25,-1.02 0.51,-2.99 0.76,-5.92 0.26,-2.93 0.51,-6.8 0.77,-11.64 -0.25,-4.45 0.19,-8.84 1.34,-13.16 0.89,-1.78 2.16,-2.83 3.81,-3.15 1.65,-0.32 3.11,0.35 4.39,2 0.77,0.25 1.02,2.35 0.77,6.29 -0.89,20.86 -0.64,44.38 0.76,70.58zm-16.03 -25.18l0 0c1.4,-4.96 1.47,-7.57 0.19,-7.82 -0.51,-0.76 -1.59,-1.08 -3.24,-0.95 -3.06,0.12 -5.53,1.34 -7.44,3.62 -4.58,5.72 -6.87,12.27 -6.87,19.65 -0.12,1.52 0.06,3.3 0.57,5.34 0.51,2.04 1.52,3.31 3.05,3.82 2.29,0.25 4.29,-0.95 6.01,-3.62 1.71,-2.67 2.89,-4.96 3.53,-6.87 1.78,-4.2 3.18,-8.59 4.2,-13.17z"/>
  <path id="_22" class="fil3" d="M757.33 958.37l0 0c1.52,-0.13 2.98,0 4.39,0.38 1.4,0.38 2.16,1.47 2.29,3.24 -0.38,3.18 -3.5,5.02 -9.35,5.53 -4.58,0.13 -8.42,-1.4 -11.54,-4.58 -3.12,-3.18 -5.25,-6.93 -6.39,-11.25 -1.27,-5.47 -1.27,-11 0,-16.6 2.42,-9.03 6.61,-15.07 12.59,-18.13 4.07,-1.4 7.69,-0.83 10.87,1.72 2.29,2.29 3.18,5.5 2.67,9.63 -0.51,4.14 -2.29,7.92 -5.34,11.35 -2.42,2.67 -5.15,4.58 -8.2,5.73 -1.52,0.51 -2.54,0.95 -3.05,1.34 -1.28,2.29 -0.32,5.4 2.86,9.34 2.16,1.91 4.7,2.67 7.63,2.29 0.12,0 0.32,0 0.57,0zm-7.25 -30.71l0 0c-2.93,3.81 -4.07,6.74 -3.43,8.78 0.38,0.51 1.21,0.44 2.48,-0.19 1.65,-1.14 3.02,-2.89 4.1,-5.25 1.08,-2.35 1.18,-4.03 0.29,-5.06 -0.76,-0.76 -1.91,-0.19 -3.43,1.72z"/>
  <path id="_23" class="fil3" d="M860.35 976.68c-1.02,-0.38 -1.84,-0.95 -2.48,-1.71 -2.67,-3.56 -4.45,-7.57 -5.34,-12.02 -1.78,-8.9 -2.74,-19.2 -2.86,-30.9 0,-2.67 -0.16,-4.52 -0.48,-5.53 -0.32,-1.02 -0.99,-1.84 -2.01,-2.48 -1.14,-0.76 -1.9,-1.47 -2.29,-2.1 -0.51,-1.78 -0.06,-3.31 1.34,-4.58 0.76,-0.64 1.52,-1.27 2.29,-1.91l0.96 -0.95 0.38 -8.39c0.13,-5.09 0.32,-8.33 0.57,-9.73 0.76,-2.16 1.97,-3.37 3.62,-3.62 1.65,-0.25 2.99,0.57 4.01,2.48 0.25,0.51 0.45,1.43 0.57,2.76 0.13,1.34 0.25,3.91 0.38,7.73 0,3.3 0.06,5.66 0.19,7.06 0.12,1.4 0.25,2.23 0.38,2.48 0.25,0.12 0.92,0.25 2.01,0.38 1.08,0.13 2.76,0.19 5.06,0.19 5.98,0 9.15,0.83 9.54,2.48 1.27,2.67 0.25,4.7 -3.06,6.11 -1.78,0.25 -4.2,0.38 -7.25,0.38 -3.56,0 -5.63,0.25 -6.2,0.76 -0.57,0.51 -0.79,2.22 -0.67,5.15 0,5.6 0.44,12.91 1.34,21.94 0.76,6.74 1.97,11.96 3.62,15.64 0.63,1.15 1.14,2.51 1.52,4.1 0.38,1.59 0,2.89 -1.15,3.91 -1.27,0.89 -2.61,1.02 -4,0.38z"/>
  <path id="_24" class="fil3" d="M917.76 968.1c-2.03,-0.25 -3.43,-2.86 -4.2,-7.82 -0.51,-2.92 -1.05,-4.54 -1.62,-4.86 -0.57,-0.32 -1.49,0.48 -2.76,2.38 -3.06,3.94 -5.66,6.42 -7.82,7.44 -4.2,1.9 -8.2,1.24 -12.02,-2.01 -3.82,-3.24 -6.49,-8.24 -8.01,-14.97 -0.76,-5.09 -0.92,-10.84 -0.48,-17.27 0.44,-6.42 1.37,-10.97 2.76,-13.64 1.4,-1.91 3.12,-2.48 5.15,-1.72 2.16,0.25 2.67,3.56 1.52,9.92 -0.76,7.5 -0.76,14.24 0,20.22 0.76,4.58 2.03,7.76 3.82,9.54 2.54,1.91 4.77,1.52 6.67,-1.14 1.91,-2.67 3.31,-5.15 4.2,-7.44 2.41,-6.74 3.75,-13.73 4,-20.99 0.25,-5.72 1.21,-8.78 2.87,-9.15 1.14,-0.89 2.41,-0.96 3.81,-0.19 1.02,0.38 1.72,1.33 2.1,2.86 0.38,1.52 0.7,4.7 0.96,9.54 0.76,9.03 1.78,17.8 3.05,26.32 0.51,3.43 0.79,5.92 0.86,7.44 0.06,1.52 -0.03,2.67 -0.29,3.43 -1.02,1.65 -2.55,2.35 -4.58,2.1z"/>
  <path id="_25" class="fil3" d="M1069.23 965.23c-1.52,-0.76 -1.91,-4.26 -1.15,-10.5 1.02,-8.39 0.95,-16.78 -0.19,-25.18 -0.38,-4.2 -1.78,-7.88 -4.2,-11.06 -1.4,-1.28 -2.86,-1.65 -4.39,-1.15 -1.52,0.51 -2.8,1.34 -3.81,2.48 -3.94,4.32 -7.06,9.41 -9.35,15.26 -0.51,1.4 -1.27,3.94 -2.29,7.63 -0.25,2.42 -1.02,4.7 -2.29,6.87 -2.41,2.67 -4.64,2.67 -6.67,0 -1.02,-2.42 -1.53,-5.02 -1.53,-7.82 -0.38,-6.99 -1.02,-11.95 -1.9,-14.88 -0.51,-1.78 -1.3,-2.13 -2.38,-1.05 -1.08,1.08 -2.2,3.4 -3.34,6.96 -1.4,3.56 -2.8,9.41 -4.2,17.55 -0.89,5.21 -1.52,8.33 -1.91,9.35 -0.89,1.4 -2.16,2.1 -3.81,2.1 -2.67,0 -4.26,-2.1 -4.77,-6.29 -0.89,-6.74 -1.47,-15.58 -1.72,-26.52 -0.12,-3.94 -0.16,-6.61 -0.09,-8.01 0.06,-1.4 0.22,-2.42 0.48,-3.05 2.16,-3.56 4.52,-3.75 7.06,-0.57 0.38,0.76 0.64,2.03 0.76,3.81 0.13,1.53 0.35,2.61 0.67,3.24 0.32,0.64 0.67,0.76 1.05,0.38 0.51,-0.38 1.34,-1.59 2.48,-3.63 3.81,-6.23 7.75,-8.46 11.83,-6.67 2.16,1.14 3.94,3.24 5.34,6.29 0.76,2.16 1.46,3.18 2.1,3.05 0.63,-0.12 1.78,-1.4 3.43,-3.81 3.43,-5.09 7.06,-8.65 10.87,-10.69 2.16,-1.14 4.14,-1.59 5.92,-1.34 3.43,-0.12 6.49,1.34 9.15,4.39 4.46,4.32 7,12.15 7.64,23.46 0.25,11.57 -0.45,20.73 -2.1,27.47 -1.9,2.93 -4.13,3.56 -6.67,1.91z"/>
  <path id="_26" class="fil3" d="M1130.84 962.18l0 0c1.65,5.22 1.78,8.08 0.38,8.59 -1.4,1.4 -2.93,1.71 -4.58,0.95l0 0c-2.16,-0.51 -4.01,-4.26 -5.53,-11.25 -0.64,-3.18 -1.27,-4.8 -1.91,-4.87 -0.63,-0.06 -1.71,1.37 -3.24,4.29 -2.55,4.7 -5.34,7.82 -8.4,9.35 -3.3,1.4 -6.55,1.33 -9.73,-0.19 -3.94,-2.29 -6.74,-5.91 -8.39,-10.87 -2.8,-13.35 -0.06,-26.19 8.2,-38.53 5.09,-6.36 10.81,-8.39 17.17,-6.11 2.03,1.02 3.69,1.02 4.96,0 3.43,-1.4 5.79,-0.51 7.06,2.67 0.13,1.4 0.32,4.9 0.57,10.5 0.25,16.66 1.4,28.49 3.43,35.48zm-18.31 -16.78l0 0c2.29,-7.38 3.56,-13.23 3.81,-17.55 -0.12,-2.54 -1.15,-4.35 -3.05,-5.43 -1.91,-1.08 -3.94,-0.98 -6.11,0.29 -5.22,4.83 -8.33,12.78 -9.35,23.84 -0.25,7.64 1.08,12.27 4.01,13.93 1.27,0.76 2.61,0.44 4.01,-0.96 2.16,-2.54 4.39,-7.25 6.68,-14.11z"/>
  <path id="_27" class="fil3" d="M1178.54 966.19c-1.65,-0.89 -1.91,-4.01 -0.77,-9.35 2.55,-13.1 3.24,-23.14 2.1,-30.14 -1.78,-10.18 -6.17,-11.77 -13.17,-4.77 -6.48,6.36 -11.57,16.85 -15.26,31.47 -0.76,3.18 -1.34,5.31 -1.71,6.39 -0.38,1.08 -0.83,1.81 -1.34,2.2 -2.67,2.16 -4.96,1.52 -6.87,-1.91 -0.38,-0.76 -0.74,-2.57 -1.05,-5.43 -0.32,-2.86 -0.67,-7.54 -1.05,-14.02 -0.51,-6.87 -0.77,-12.08 -0.77,-15.64 0,-3.56 0.13,-5.92 0.38,-7.06 0.64,-2.04 1.78,-3.21 3.43,-3.53 1.65,-0.32 3.05,0.42 4.2,2.2 0.38,0.76 0.64,3.18 0.76,7.25 0.25,3.82 0.51,6.17 0.76,7.06 0.38,0.76 0.83,0.83 1.34,0.19 0.51,-0.51 1.15,-1.47 1.91,-2.86 5.34,-8.91 10.74,-14.95 16.22,-18.13 6.36,-2.93 11.76,-2.1 16.21,2.48 5.85,6.61 7.51,18.57 4.96,35.86 -1.02,7.12 -2.1,12.21 -3.24,15.26 -1.91,3.69 -4.26,4.52 -7.06,2.48l0 0z"/>
  <path id="_28" class="fil3" d="M1234.62 935.28l0 0c0.38,6.36 -0.7,12.53 -3.24,18.5 -4.07,7.25 -9.66,10.49 -16.78,9.73 -3.3,-0.76 -6.42,-2.61 -9.35,-5.53 -3.43,-3.56 -5.66,-7.79 -6.67,-12.69 -1.02,-4.89 -1.02,-9.76 0,-14.59 1.02,-6.36 3.81,-11.76 8.39,-16.21 3.05,-2.16 6.33,-2.8 9.83,-1.91 3.49,0.89 6.52,2.48 9.06,4.77 5.09,4.83 8.01,10.81 8.78,17.93zm-9.34 7.82l0 0c0.38,-3.3 0.31,-6.23 -0.19,-8.77 -0.51,-2.55 -1.65,-5.22 -3.43,-8.01 -1.78,-2.8 -4.13,-4.01 -7.06,-3.62 -1.91,0.63 -3.37,2.03 -4.39,4.2 -1.02,2.16 -1.78,4.2 -2.29,6.11 -0.89,3.43 -0.98,6.93 -0.29,10.49 0.7,3.56 2.45,6.55 5.25,8.97 2.03,1.65 4.2,2.03 6.48,1.15 3.43,-2.29 5.41,-5.79 5.92,-10.5z"/>
  <path id="_29" class="fil3" d="M1247.59 971.72c-1.4,-1.4 -1.59,-2.99 -0.57,-4.77 0.51,-1.27 1.65,-1.91 3.43,-1.91 1.27,0 2.26,0.51 2.96,1.53 0.7,1.02 0.79,2.16 0.29,3.43 -0.51,1.65 -1.65,2.54 -3.43,2.67 -1.02,0.25 -1.91,-0.06 -2.67,-0.96l0 0zm0.19 -18.5c-0.76,-0.38 -1.27,-1.62 -1.52,-3.72 -0.25,-2.1 -0.44,-7.53 -0.57,-16.31 -0.25,-8.9 -0.51,-16.91 -0.76,-24.04 -0.51,-12.46 -0.76,-20.48 -0.76,-24.04 0,-3.56 0.13,-5.47 0.38,-5.72 0.38,-1.02 1.08,-1.72 2.1,-2.1 0.89,-0.51 1.84,-0.45 2.86,0.19 0.89,0.12 1.52,0.79 1.91,2 0.38,1.21 0.7,4.33 0.95,9.35 0.25,5.02 0.51,13.45 0.76,25.27 0.38,9.79 0.61,17.46 0.67,22.99 0.06,5.53 0.06,9.44 0,11.73 -0.06,2.29 -0.29,3.62 -0.67,4.01 -1.52,2.03 -3.3,2.16 -5.34,0.38l0 0z"/>
 </g>
</svg>
